<svg xmlns="http://www.w3.org/2000/svg" xmlns:xlink="http://www.w3.org/1999/xlink" fill="none" version="1.1" width="43" height="35" viewBox="0 0 43 35"><defs><clipPath id="master_svg0_1_0"><rect x="0" y="0" width="43" height="35" rx="0"/></clipPath></defs><g clip-path="url(#master_svg0_1_0)"><g transform="matrix(0,-1,1,0,-27.166671752929688,31.166671752929688)"><path d="M13.6667,29.166671752929688C17.893700000000003,29.167218298929686,21.6514,32.02376175292969,23.0119,36.270911752929685C24.3725,40.518071752929686,23.034,45.21317175292969,19.6831,47.947671752929686C23.0718,49.947671752929686,25.3333,53.58577175292969,25.3333,57.738071752929685C25.3333,64.0504717529297,20.1103,69.16667175292969,13.6667,69.16667175292969C7.22308,69.16667175292969,2,64.0504717529297,2,57.738071752929685C2,53.58377175292969,4.26333,49.947671752929686,7.64846,47.945671752929684C4.298830000000001,45.21057175292969,2.961495,40.51607175292969,4.32233,36.26970175292969C5.68421,32.02258175292969,9.441279999999999,29.166671525864686,13.6667,29.166671752929688ZM13.6667,50.119071752929685C9.14359,50.119071752929685,5.58974,53.60097175292969,5.58974,57.738071752929685C5.58974,61.875271752929685,9.14359,65.35717175292969,13.6667,65.35717175292969C18.1897,65.35717175292969,21.7436,61.875271752929685,21.7436,57.738071752929685C21.7436,53.60097175292969,18.1897,50.119071752929685,13.6667,50.119071752929685ZM13.6667,32.97619175292969C10.19719,32.97619175292969,7.38462,35.96096175292969,7.38462,39.642871752929686C7.38462,43.324771752929685,10.19719,46.309571752929685,13.6667,46.309571752929685C17.1361,46.309571752929685,19.9487,43.324771752929685,19.9487,39.642871752929686C19.9487,35.96096175292969,17.1361,32.97619175292969,13.6667,32.97619175292969Z" fill="#66CCFF" fill-opacity="1"/><path d="M7.61811,30.72746175292969Q4.91573,32.781661752929686,3.84621,36.11703175292969L3.84619,36.11711175292969Q2.779387,39.44597175292969,3.7381,42.81137175292969Q4.6003,45.838071752929686,6.81166,47.88097175292969Q4.5238499999999995,49.405071752929686,3.12402,51.78097175292969Q1.5,54.53737175292969,1.500001,57.738071752929685Q1.500001,60.16677175292969,2.457745,62.38507175292969Q3.3822099999999997,64.52627175292969,5.0671,66.17667175292968Q6.75088,67.82607175292969,8.93399,68.73057175292968Q11.19349,69.66667175292969,13.6667,69.66667175292969Q16.1398,69.66667175292969,18.3993,68.73057175292968Q20.5825,67.82607175292969,22.2662,66.17667175292968Q23.9511,64.52627175292969,24.8756,62.38507175292969Q25.8333,60.16677175292969,25.8333,57.738071752929685Q25.8333,54.537571752929686,24.2098,51.78187175292969Q22.8094,49.405071752929686,20.5205,47.88257175292969Q22.7323,45.84017175292969,23.5951,42.81357175292969Q24.5547,39.447871752929686,23.4881,36.11837175292969Q22.4196,32.78290175292969,19.7168,30.728271752929686Q17.005499999999998,28.667103752929687,13.6667,28.66667275292969Q10.32917,28.66667275292969,7.61811,30.72746175292969ZM4.79846,36.422371752929685L4.79848,36.42229175292969Q5.77179,33.38704175292969,8.22326,31.523571752929687Q10.66609,29.66667275292969,13.6667,29.66667275292969Q16.6685,29.66705975292969,19.1116,31.524361752929686Q21.5634,33.38820175292969,22.5358,36.42345175292969Q23.51,39.46467175292969,22.6335,42.539471752929686Q21.7585,45.60867175292969,19.367,47.56027175292969L18.8113,48.01367175292969L19.4289,48.37817175292969Q21.9046,49.83937175292969,23.3482,52.28957175292969Q24.8333,54.81027175292969,24.8333,57.738071752929685Q24.8333,59.96017175292969,23.9575,61.98867175292969Q23.1109,63.949371752929686,21.5665,65.46237175292968Q20.0209,66.97627175292969,18.0166,67.80667175292969Q15.9409,68.66667175292969,13.6667,68.66667175292969Q11.39244,68.66667175292969,9.31673,67.80667175292969Q7.31241,66.97627175292969,5.76687,65.46237175292968Q4.22239,63.949371752929686,3.37583,61.98867175292969Q2.5,59.960071752929686,2.500001,57.738071752929685Q2.5,54.81007175292969,3.9856,52.288571752929684Q5.42859,49.83937175292969,7.90298,48.37607175292969L8.51953,48.01147175292969L7.9647,47.55847175292969Q5.57409,45.60637175292969,4.69984,42.53747175292969Q3.82404,39.46297175292969,4.79846,36.422371752929685ZM18.4726,44.699771752929685Q20.4487,42.602771752929684,20.4487,39.642871752929686Q20.4487,36.68297175292969,18.4726,34.585921752929686Q16.4846,32.47619175292969,13.6667,32.47620175292969Q10.8487,32.47619175292969,8.86069,34.585921752929686Q6.88462,36.682981752929685,6.88462,39.642871752929686Q6.88462,42.602771752929684,8.86069,44.699771752929685Q10.8487,46.809571752929685,13.6667,46.809571752929685Q16.4846,46.809571752929685,18.4726,44.699771752929685ZM17.7449,35.271721752929686Q19.4487,37.079901752929686,19.4487,39.642871752929686Q19.4487,42.20587175292969,17.7449,44.01397175292969Q16.0529,45.809571752929685,13.6667,45.809571752929685Q11.28042,45.809571752929685,9.58848,44.01397175292969Q7.88461,42.20587175292969,7.88462,39.642871752929686Q7.88462,37.079901752929686,9.58848,35.271721752929686Q11.28041,33.47619175292969,13.6667,33.47620175292969Q16.0529,33.47619175292969,17.7449,35.271721752929686ZM21.5745,60.87707175292969Q22.2436,59.37237175292969,22.2436,57.738071752929685Q22.2436,56.10387175292969,21.5745,54.59907175292969Q20.9264,53.14157175292969,19.7465,52.015471752929685Q17.2357,49.619071752929685,13.6667,49.619071752929685Q10.0976,49.619071752929685,7.58683,52.015471752929685Q6.40693,53.14157175292969,5.75884,54.59907175292969Q5.08974,56.10387175292969,5.08974,57.738071752929685Q5.08974,59.37237175292969,5.75884,60.87707175292969Q6.40693,62.33457175292969,7.58683,63.46077175292969Q10.09761,65.85717175292969,13.6667,65.85717175292969Q17.2357,65.85717175292969,19.7465,63.46077175292969Q20.9264,62.33457175292969,21.5745,60.87707175292969ZM19.0561,52.73887175292968Q21.2436,54.826671752929684,21.2436,57.738071752929685Q21.2436,60.649471752929685,19.0561,62.73737175292969Q16.8351,64.85717175292969,13.6667,64.85717175292969Q10.49823,64.85717175292969,8.27727,62.73737175292969Q6.08974,60.649471752929685,6.08974,57.738071752929685Q6.08974,54.826671752929684,8.27727,52.73887175292968Q10.49824,50.619071752929685,13.6667,50.619071752929685Q16.8351,50.619071752929685,19.0561,52.73887175292968Z" fill-rule="evenodd" fill="#FFFFFF" fill-opacity="1"/></g></g></svg>