<svg xmlns="http://www.w3.org/2000/svg" xmlns:xlink="http://www.w3.org/1999/xlink" fill="none" version="1.1" width="24" height="24" viewBox="0 0 24 24"><defs><clipPath id="master_svg0_7_088"><rect x="0" y="0" width="24" height="24" rx="0"/></clipPath></defs><g clip-path="url(#master_svg0_7_088)"><g><path d="M18.223,3.0860001702423094C18.7113,3.5741821702423096,18.7113,4.36581817024231,18.223,4.85399817024231L17.08,5.995998170242309L18.25,5.995998170242309C20.3215,5.995998170242309,22.0006,7.6755381702423096,22,9.74699817024231L22,17.24703817024231C22,19.31803817024231,20.3211,20.99703817024231,18.25,20.99703817024231L5.75,20.99703817024231C3.6789300000000003,20.99703817024231,2.000000238419,19.31803817024231,2,17.24703817024231L2,9.74699817024231C1.999999880791,7.67592817024231,3.6789300000000003,5.99699817024231,5.75,5.99699817024231L6.916,5.99699817024231L5.775,4.854998170242309C5.2721800000000005,4.369638170242309,5.26497,3.5663121702423095,5.759,3.0720051702423095C6.25302,2.5776981702423094,7.05636,2.5844541702423096,7.542,3.0870001702423098L10.194,5.73899817024231C10.273,5.817998170242309,10.339,5.90399817024231,10.392,5.995998170242309L13.605,5.995998170242309C13.658,5.90399817024231,13.725,5.81599817024231,13.804,5.73799817024231L16.455,3.0860001702423094C16.943199999999997,2.5976891702423095,17.7348,2.5976891702423095,18.223,3.0860001702423094ZM18.25,8.50599817024231L5.75,8.50599817024231C5.09554,8.50575817024231,4.55169,9.01035817024231,4.503,9.662998170242311L4.5,9.756998170242309L4.5,17.25703817024231C4.5,17.91603817024231,5.01,18.45603817024231,5.657,18.50303817024231L5.75,18.50703817024231L18.25,18.50703817024231C18.9045,18.50723817024231,19.4483,18.00263817024231,19.497,17.350038170242307L19.5,17.25703817024231L19.5,9.756998170242309C19.5,9.06699817024231,18.94,8.506998170242309,18.25,8.50599817024231L18.25,8.50599817024231ZM8.25,11.005998170242309C8.940000000000001,11.005998170242309,9.5,11.56599817024231,9.5,12.255998170242309L9.5,13.50603817024231C9.5,14.19633817024231,8.94036,14.75603817024231,8.25,14.75603817024231C7.55964,14.75603817024231,7,14.19633817024231,7,13.50603817024231L7,12.255998170242309C7,11.56599817024231,7.56,11.005998170242309,8.25,11.005998170242309ZM15.75,11.005998170242309C16.439999999999998,11.005998170242309,17,11.56599817024231,17,12.255998170242309L17,13.50603817024231C17,14.19633817024231,16.4404,14.75603817024231,15.75,14.75603817024231C15.0596,14.75603817024231,14.5,14.19633817024231,14.5,13.50603817024231L14.5,12.255998170242309C14.5,11.56599817024231,15.06,11.005998170242309,15.75,11.005998170242309Z" fill="#FFFFFF" fill-opacity="1"/></g></g></svg>