<svg xmlns="http://www.w3.org/2000/svg" xmlns:xlink="http://www.w3.org/1999/xlink" fill="none" version="1.1" width="24" height="24" viewBox="0 0 24 24"><defs><clipPath id="master_svg0_7_096"><rect x="0" y="0" width="24" height="24" rx="0"/></clipPath></defs><g clip-path="url(#master_svg0_7_096)"><g><path d="M3,3L21,3C21.5523,3,22,3.447715,22,4L22,20C22,20.5523,21.5523,21,21,21L3,21C2.447715,21,2,20.5523,2,20L2,4C2,3.447715,2.447715,3,3,3ZM20,10L4,10L4,19L20,19L20,10ZM15,6L15,8L19,8L19,6L15,6Z" fill="#FFFFFF" fill-opacity="1"/></g></g></svg>