<svg xmlns="http://www.w3.org/2000/svg" xmlns:xlink="http://www.w3.org/1999/xlink" fill="none" version="1.1" width="24" height="24" viewBox="0 0 24 24"><defs><clipPath id="master_svg0_7_092"><rect x="0" y="0" width="24" height="24" rx="0"/></clipPath></defs><g clip-path="url(#master_svg0_7_092)"><g><path d="M17.525000953674315,11.377999421310426C18.788000953674317,11.769999421310425,20.194000953674315,12.713999421310424,20.194000953674315,14.381999421310425C20.194000953674315,17.144999421310423,16.214000953674315,20.620999421310426,10.230000953674317,20.620999421310426C5.665000953674316,20.620999421310426,1.0000009536743164,18.407999421310425,1.0000009536743164,14.768999421310426C1.0000009536743164,12.866999421310425,2.204000953674316,10.666999421310425,4.2770009536743165,8.591999421310426C7.050000953674316,5.821999421310425,10.281000953674317,4.558999421310425,11.496000953674317,5.775999421310425C12.033000953674316,6.312999421310424,12.084000953674316,7.239999421310425,11.740000953674317,8.347999421310424Q11.562000953674316,8.904999421310425,12.265000953674317,8.597999421310424C14.505000953674317,7.659999421310425,16.461000953674315,7.603999421310425,17.174000953674316,8.624999421310424C17.554000953674315,9.167999421310425,17.517000953674316,9.930999421310425,17.166000953674317,10.814999421310425C17.003000953674317,11.221999421310425,17.214000953674315,11.285999421310425,17.526000953674316,11.377999421310426L17.525000953674315,11.377999421310426ZM10.243000953674317,19.316999421310424C13.884000953674317,18.954999421310426,16.644000953674315,16.724999421310425,16.410000953674317,14.333999421310425C16.17300095367432,11.942999421310425,13.028000953674317,10.295999421310425,9.387000953674317,10.656999421310424C5.747000953674316,11.016999421310425,2.9840009536743164,13.246999421310425,3.2200009536743166,15.636999421310424C3.4570009536743163,18.030999421310426,6.602000953674317,19.675999421310426,10.243000953674317,19.316999421310424ZM6.1600009536743165,14.437999421310424C6.914000953674316,12.910999421310425,8.872000953674316,12.047999421310426,10.606000953674316,12.497999421310425C12.399000953674316,12.960999421310424,13.313000953674317,14.651999421310425,12.582000953674317,16.297999421310426C11.838000953674316,17.979999421310424,9.700000953674316,18.875999421310425,7.887000953674316,18.290999421310424C6.135000953674316,17.724999421310425,5.3940009536743165,15.996999421310425,6.1600009536743165,14.437999421310424ZM7.606000953674316,17.024999421310426C8.174000953674316,17.281999421310424,8.931000953674317,17.037999421310424,9.282000953674316,16.474999421310425C9.628000953674317,15.906999421310426,9.445000953674317,15.257999421310425,8.875000953674316,15.015999421310426C8.312000953674318,14.778999421310425,7.584000953674316,15.023999421310425,7.235000953674317,15.568999421310425C6.881000953674317,16.115999421310427,7.046000953674317,16.770999421310425,7.606000953674316,17.024999421310426ZM9.812000953674316,15.216999421310424C10.031000953674317,15.308999421310425,10.313000953674317,15.204999421310426,10.440000953674316,14.985999421310424C10.563000953674317,14.765999421310426,10.484000953674316,14.519999421310425,10.262000953674317,14.437999421310424C10.046000953674316,14.353999421310425,9.776000953674316,14.455999421310425,9.649000953674316,14.669999421310425C9.526000953674316,14.883999421310424,9.595000953674317,15.127999421310426,9.812000953674316,15.216999421310424ZM19.873000953674318,9.499999421310424C19.751400953674317,9.884509421310426,19.339500953674317,10.095929421310425,18.956200953674315,9.970499421310425C18.572900953674317,9.845059421310424,18.365700953674317,9.430979421310425,18.495000953674317,9.048999421310425C18.649800953674315,8.577779421310424,18.539900953674316,8.059709421310425,18.207000953674317,7.691999421310425C17.873400953674317,7.325839421310425,17.370600953674316,7.164069421310425,16.886000953674316,7.266999421310425C16.494800953674314,7.3509794213104245,16.109700953674317,7.101809421310425,16.026000953674316,6.710609421310425C15.942300953674316,6.319399421310425,16.191700953674317,5.934439421310425,16.583000953674315,5.850999421310425C17.574200953674318,5.639219421310425,18.603100953674318,5.972549421310425,19.281800953674317,6.725339421310425C19.960600953674316,7.478129421310425,20.185900953674317,8.535929421310424,19.873000953674318,9.499999421310424ZM15.957000953674317,2.9250004213104246C17.992600953674316,2.4911934213104248,20.105100953674317,3.1752874213104247,21.500000953674316,4.719999421310424C22.895800953674318,6.267179421310425,23.360800953674318,8.441209421310425,22.720000953674315,10.423999421310425C22.577900953674316,10.867069421310426,22.102000953674317,11.109509421310424,21.660000953674317,10.963999421310424C21.217400953674318,10.819989421310424,20.974900953674318,10.344889421310425,21.118000953674315,9.901999421310425C22.099600953674315,6.8681294213104245,19.429400953674318,3.909099421310425,16.311000953674316,4.574999421310425C15.867600953674316,4.645399421310425,15.446500953674317,4.356719421310425,15.352300953674316,3.917709421310425C15.258100953674317,3.478702421310425,15.523700953674316,3.042694421310425,15.957000953674317,2.9250004213104246Z" fill="#FFFFFF" fill-opacity="1"/></g></g></svg>